<svg xmlns="http://www.w3.org/2000/svg" width="32" height="32" id="browser">
  <g transform="translate(-454.5 -34.5)">
    <path fill="none" stroke="#000" stroke-linecap="round" stroke-linejoin="round" stroke-width="1.033" d="M455.016 38.016h30.967v24.967h-30.967z"></path>
    <path fill="none" stroke="#000" d="M455.5 42h30.781"></path>
    <circle cx="483" cy="40" r=".5"></circle>
    <path fill="#f05542" d="M457.5 44.5h26v16h-26z"></path>
    <path fill="#f8b84e" d="M467.698 56.503h5.672c1.861 0 2.005-.977.951-2.802l-2.222-4.019c-.904-1.566-2.292-1.606-3.217 0l-2.235 4.02c-1.145 1.982-.67 2.805 1.051 2.805z"></path>
    <path fill="#2b4255" d="M469.991 50.503h1v3h-1zM470.991 55.003a.5.5 0 1 1-1.001-.001.5.5 0 0 1 1.001.001z"></path>
    <circle cx="481" cy="40.02" r=".5"></circle>
    <circle cx="479" cy="40" r=".5"></circle>
  </g>
</svg>
