<svg width="38" height="38" viewBox="0 0 38 38" fill="none" xmlns="http://www.w3.org/2000/svg">
<path d="M31.6457 11.7293L13.8123 2.81266C1.83315 -3.18734 -3.08352 1.72932 2.91648 13.7085L4.72898 17.3335C5.24982 18.396 5.24982 19.6252 4.72898 20.6877L2.91648 24.2918C-3.08352 36.271 1.81232 41.1877 13.8123 35.1877L31.6457 26.271C39.6457 22.271 39.6457 15.7293 31.6457 11.7293ZM24.9165 20.5627H13.6665C12.8123 20.5627 12.104 19.8543 12.104 19.0002C12.104 18.146 12.8123 17.4377 13.6665 17.4377H24.9165C25.7707 17.4377 26.479 18.146 26.479 19.0002C26.479 19.8543 25.7707 20.5627 24.9165 20.5627Z" fill="#3369FF"/>
</svg>
