<svg width="24" height="24" viewBox="0 0 24 24" fill="none" xmlns="http://www.w3.org/2000/svg">
<path d="M12 0.625C15.2164 0.7095 17.8952 1.82235 20.0364 3.96356C22.1776 6.10477 23.2905 8.78358 23.375 12C23.2905 15.2164 22.1776 17.8952 20.0364 20.0364C17.8952 22.1776 15.2164 23.2905 12 23.375C8.78358 23.2905 6.10477 22.1776 3.96356 20.0364C1.82235 17.8952 0.7095 15.2164 0.625 12C0.7095 8.78358 1.82235 6.10477 3.96356 3.96356C6.10477 1.82235 8.78358 0.7095 12 0.625ZM12 5.5C11.5596 5.5 11.1956 5.66087 10.908 5.98263C10.6204 6.30437 10.4934 6.68517 10.5269 7.125L11.1111 13.625C11.1453 13.8623 11.2425 14.0526 11.4028 14.1962C11.5631 14.3397 11.7619 14.4118 11.9992 14.4123C12.2364 14.4129 12.4352 14.3408 12.5956 14.1962C12.7559 14.0516 12.8531 13.8612 12.8872 13.625L13.4714 7.125C13.5056 6.68463 13.3785 6.30383 13.0904 5.98263C12.8022 5.66142 12.4382 5.50054 11.9984 5.5H12ZM12 18.5C12.3727 18.4832 12.6817 18.3562 12.9271 18.1189C13.1724 17.8817 13.2951 17.577 13.2951 17.2049C13.2951 16.8328 13.1724 16.5237 12.9271 16.2778C12.6817 16.0319 12.3727 15.9092 12 15.9097C11.6273 15.9103 11.3183 16.033 11.0729 16.2778C10.8276 16.5226 10.7049 16.8317 10.7049 17.2049C10.7049 17.5781 10.8276 17.8828 11.0729 18.1189C11.3183 18.3551 11.6273 18.4821 12 18.5Z" fill="black" fill-opacity="0.2"/>
</svg>
