<svg width="12" height="16" viewBox="0 0 12 16" fill="none" xmlns="http://www.w3.org/2000/svg">
<path d="M4.66406 7.28589C5.03906 7.63745 5.48438 7.81323 6 7.81323C6.51562 7.81323 6.94922 7.63745 7.30078 7.28589C7.67578 6.91089 7.86328 6.46558 7.86328 5.94995C7.86328 5.43433 7.67578 5.00073 7.30078 4.64917C6.94922 4.27417 6.51562 4.08667 6 4.08667C5.48438 4.08667 5.03906 4.27417 4.66406 4.64917C4.3125 5.00073 4.13672 5.43433 4.13672 5.94995C4.13672 6.46558 4.3125 6.91089 4.66406 7.28589ZM2.27344 2.25854C3.30469 1.22729 4.54688 0.71167 6 0.71167C7.45312 0.71167 8.68359 1.22729 9.69141 2.25854C10.7227 3.26636 11.2383 4.49683 11.2383 5.94995C11.2383 6.67651 11.0508 7.50854 10.6758 8.44604C10.3242 9.38354 9.89062 10.2625 9.375 11.0828C8.85938 11.9031 8.34375 12.6765 7.82812 13.4031C7.33594 14.1062 6.91406 14.6687 6.5625 15.0906L6 15.6882C5.85938 15.5242 5.67188 15.3132 5.4375 15.0554C5.20312 14.7742 4.78125 14.2351 4.17188 13.4382C3.5625 12.6179 3.02344 11.8328 2.55469 11.0828C2.10938 10.3093 1.69922 9.44214 1.32422 8.4812C0.949219 7.52026 0.761719 6.67651 0.761719 5.94995C0.761719 4.49683 1.26562 3.26636 2.27344 2.25854Z" fill="#4A8CFF"/>
</svg>
