<svg xmlns="http://www.w3.org/2000/svg" id="message" viewBox="0 0 96 96">
  <g id="g3920-2-1_5_" transform="matrix(3.2 0 0 3.2 -9.706 269.356)">
    <circle id="circle3922-0-1_5_" cx="18" cy="-69.2" r="15" fill="#50b648"></circle>
  </g>
  <path fill="#fff" d="M34.5 51.5h-12c-1.4 0-2.5 1.1-2.5 2.5v8c0 1.4 1.1 2.5 2.5 2.5h10.8l2.9 1.9c.1.1.2.1.3.1.1 0 .2 0 .2-.1.2-.1.3-.3.3-.4V54c0-1.4-1.1-2.5-2.5-2.5zM36 65.1l-2.2-1.5c-.1-.1-.2-.1-.3-.1h-11c-.8 0-1.5-.7-1.5-1.5v-8c0-.8.7-1.5 1.5-1.5h12c.8 0 1.5.7 1.5 1.5v11.1zM65.5 37.5c1.4 0 2.5-1.1 2.5-2.5v-8c0-1.4-1.1-2.5-2.5-2.5h-14c-1.4 0-2.5 1.1-2.5 2.5v12c0 .2.1.4.3.4.1 0 .2.1.2.1.1 0 .2 0 .3-.1l2.9-1.9h12.8zm-13.3-.9L50 38.1V27c0-.8.7-1.5 1.5-1.5h14c.8 0 1.5.7 1.5 1.5v8c0 .8-.7 1.5-1.5 1.5h-13c-.1 0-.2 0-.3.1z"></path>
  <path fill="#fff" d="M24.5 49.5h16.9l4.7 3.9c.1.1.2.1.3.1h.2c.2-.1.3-.3.3-.5V34c0-2.5-2-4.5-4.5-4.5h-18c-2.5 0-4.5 2-4.5 4.5v11c.1 2.5 2.1 4.5 4.6 4.5zM21 34c0-1.9 1.6-3.5 3.5-3.5h18c1.9 0 3.5 1.6 3.5 3.5v17.9l-4.1-3.3c-.1-.1-.2-.1-.3-.1H24.5c-1.9 0-3.5-1.6-3.5-3.5V34z"></path>
  <path fill="#fff" d="M25.5 44.5h16c.3 0 .5-.2.5-.5s-.2-.5-.5-.5h-16c-.3 0-.5.2-.5.5s.2.5.5.5zM25.5 41.5h16c.3 0 .5-.2.5-.5s-.2-.5-.5-.5h-16c-.3 0-.5.2-.5.5s.2.5.5.5zM25.5 38.5h16c.3 0 .5-.2.5-.5s-.2-.5-.5-.5h-16c-.3 0-.5.2-.5.5s.2.5.5.5zM25.5 35.5h16c.3 0 .5-.2.5-.5s-.2-.5-.5-.5h-16c-.3 0-.5.2-.5.5s.2.5.5.5zM70.5 50.5h-14c-.3 0-.5.2-.5.5s.2.5.5.5h14c.3 0 .5-.2.5-.5s-.2-.5-.5-.5zM70.5 47.5h-14c-.3 0-.5.2-.5.5s.2.5.5.5h14c.3 0 .5-.2.5-.5s-.2-.5-.5-.5zM70.5 44.5h-14c-.3 0-.5.2-.5.5s.2.5.5.5h14c.3 0 .5-.2.5-.5s-.2-.5-.5-.5zM64.5 30.5h-12c-.3 0-.5.2-.5.5s.2.5.5.5h12c.3 0 .5-.2.5-.5s-.2-.5-.5-.5zM64.5 33.5h-12c-.3 0-.5.2-.5.5s.2.5.5.5h12c.3 0 .5-.2.5-.5s-.2-.5-.5-.5zM64.5 27.5h-12c-.3 0-.5.2-.5.5s.2.5.5.5h12c.3 0 .5-.2.5-.5s-.2-.5-.5-.5zM33.5 60.5h-10c-.3 0-.5.2-.5.5s.2.5.5.5h10c.3 0 .5-.2.5-.5s-.2-.5-.5-.5zM33.5 57.5h-10c-.3 0-.5.2-.5.5s.2.5.5.5h10c.3 0 .5-.2.5-.5s-.2-.5-.5-.5zM33.5 54.5h-10c-.3 0-.5.2-.5.5s.2.5.5.5h10c.3 0 .5-.2.5-.5s-.2-.5-.5-.5zM64.5 65.5h-6c-.3 0-.5.2-.5.5s.2.5.5.5h6c.3 0 .5-.2.5-.5s-.2-.5-.5-.5zM64.5 62.5h-6c-.3 0-.5.2-.5.5s.2.5.5.5h6c.3 0 .5-.2.5-.5s-.2-.5-.5-.5zM42.3 60.5c-.1 0-.1.1-.2.1 0 0-.1.1-.1.2v.2c0 .1 0 .3.1.3 0 0 .1.1.2.1h.4c.1 0 .1-.1.2-.1 0 0 .1-.1.1-.2v-.2c0-.1 0-.3-.2-.4h-.5zM42.8 63.6s-.1-.1-.2-.1h-.4c-.1 0-.1.1-.2.1v.4c0 .1 0 .3.1.3 0 0 .1.1.2.1h.4c.1 0 .1-.1.2-.1s.1-.2.1-.3v-.2c-.1 0-.1-.1-.2-.2z"></path>
  <path fill="#fff" d="M71.5 39.5h-16c-2.5 0-4.5 2-4.5 4.5v16c0 .2.1.4.3.5h.2c.1 0 .2 0 .3-.1l4.7-3.9h14.9c2.5 0 4.5-2 4.5-4.5v-8c.1-2.5-1.9-4.5-4.4-4.5zM75 52c0 1.9-1.6 3.5-3.5 3.5H56.4c-.1 0-.2 0-.3.1L52 58.9V44c0-1.9 1.6-3.5 3.5-3.5h16c1.9 0 3.5 1.6 3.5 3.5v8z"></path>
  <path fill="#fff" d="M65.5 59.5h-8c-1.4 0-2.5 1.1-2.5 2.5v9c0 .2.1.4.3.4.1 0 .2.1.2.1.1 0 .2 0 .3-.1l2.9-1.9h6.8c1.4 0 2.5-1.1 2.5-2.5v-5c0-1.4-1.1-2.5-2.5-2.5zM67 67c0 .8-.7 1.5-1.5 1.5h-7c-.1 0-.2 0-.3.1L56 70.1V62c0-.8.7-1.5 1.5-1.5h8c.8 0 1.5.7 1.5 1.5v5zM46.5 57.5h-5c-1.4 0-2.5 1.1-2.5 2.5v5c0 1.4 1.1 2.5 2.5 2.5h4.3l2.3 1.9c.1.1.2.1.3.1h.2c.2-.1.3-.3.3-.5v-9c.1-1.4-1-2.5-2.4-2.5zM48 68l-1.7-1.3c-.1-.1-.2-.1-.3-.1h-4.5c-.8 0-1.5-.7-1.5-1.5v-5c0-.8.7-1.5 1.5-1.5h5c.8 0 1.5.7 1.5 1.5V68z"></path>
  <path fill="#fff" d="M45 60.5h-.5c-.3 0-.5.2-.5.5s.2.5.5.5h.5c.6 0 1 .4 1 1s-.4 1-1 1h-.5c-.3 0-.5.2-.5.5s.2.5.5.5h.5c1.1 0 2-.9 2-2s-.9-2-2-2z"></path>
</svg>
