<svg width="24" height="24" viewBox="0 0 24 24" fill="none" xmlns="http://www.w3.org/2000/svg">
<path d="M14.0156 3H21V9.98438H18.9844V6.42188L9.1875 16.2188L7.78125 14.8125L17.5781 5.01562H14.0156V3ZM18.9844 18.9844V12H21V18.9844C21 19.5156 20.7969 19.9844 20.3906 20.3906C19.9844 20.7969 19.5156 21 18.9844 21H5.01562C4.45312 21 3.96875 20.8125 3.5625 20.4375C3.1875 20.0312 3 19.5469 3 18.9844V5.01562C3 4.45312 3.1875 3.98438 3.5625 3.60938C3.96875 3.20312 4.45312 3 5.01562 3H12V5.01562H5.01562V18.9844H18.9844Z" fill="#666666"/>
</svg>
