<svg width="18" height="31" viewBox="0 0 18 31" fill="none" xmlns="http://www.w3.org/2000/svg">
<path d="M8.72917 30.9168C6.36528 30.9168 4.36111 30.0946 2.71667 28.4502C1.07222 26.8057 0.25 24.8016 0.25 22.4377V6.25016C0.25 4.55433 0.85382 3.10259 2.06146 1.89495C3.2691 0.687316 4.72083 0.0834961 6.41667 0.0834961C8.1125 0.0834961 9.56424 0.687316 10.7719 1.89495C11.9795 3.10259 12.5833 4.55433 12.5833 6.25016V20.896C12.5833 21.9752 12.2108 22.8873 11.4656 23.6325C10.7205 24.3776 9.80833 24.7502 8.72917 24.7502C7.65 24.7502 6.73785 24.3776 5.99271 23.6325C5.24757 22.8873 4.875 21.9752 4.875 20.896V6.25016H7.1875V20.896C7.1875 21.3328 7.33524 21.6989 7.63073 21.9944C7.92622 22.2899 8.29236 22.4377 8.72917 22.4377C9.16597 22.4377 9.53212 22.2899 9.82761 21.9944C10.1231 21.6989 10.2708 21.3328 10.2708 20.896V6.25016C10.2708 5.171 9.89826 4.25884 9.15313 3.5137C8.40799 2.76857 7.49583 2.396 6.41667 2.396C5.3375 2.396 4.42535 2.76857 3.68021 3.5137C2.93507 4.25884 2.5625 5.171 2.5625 6.25016V22.4377C2.5625 24.1335 3.16632 25.5852 4.37396 26.7929C5.5816 28.0005 7.03333 28.6043 8.72917 28.6043C10.425 28.6043 11.8767 28.0005 13.0844 26.7929C14.292 25.5852 14.8958 24.1335 14.8958 22.4377V6.25016H17.2083V22.4377C17.2083 24.8016 16.3861 26.8057 14.7417 28.4502C13.0972 30.0946 11.0931 30.9168 8.72917 30.9168Z" fill="#1D1B20" fill-opacity="0.5"/>
</svg>
