<svg xmlns="http://www.w3.org/2000/svg" viewBox="0 0 96 96" id="analysis">
  <circle cx="18" cy="-69.2" r="15" fill="#50b648" transform="matrix(3.2 0 0 3.2 -9.706 269.356)"></circle>
  <path fill="#fff" d="M20.5 70.5h55c.3 0 .5-.2.5-.5s-.2-.5-.5-.5H72V46c0-.3-.2-.5-.5-.5H68V31c0-.3-.2-.5-.5-.5h-4c-.3 0-.5.2-.5.5v22.5h-3.5c-.3 0-.5.2-.5.5v15.5h-4V26c0-.3-.2-.5-.5-.5h-4c-.3 0-.5.2-.5.5v17.5h-3V34c0-.3-.2-.5-.5-.5h-4c-.3 0-.5.2-.5.5v35.5h-4V59c0-.3-.2-.5-.5-.5H34V41c0-.3-.2-.5-.5-.5h-4c-.3 0-.5.2-.5.5v8.5h-3.5c-.3 0-.5.2-.5.5v19.5h-4.5c-.3 0-.5.2-.5.5s.2.5.5.5zm50.5-24v23h-3v-23h3zm-7-15h3v38h-3v-38zm-4 23h3v15h-3v-15zm-9-28h3v43h-3v-43zm-1 18v25h-3v-25h3zm-7-10h3v35h-3v-35zm-6 25v10h-3v-10h3zm-7-18h3v28h-3v-28zm-4 9h3v19h-3v-19z"></path>
</svg>
