<svg width="19" height="20" viewBox="0 0 19 20" fill="none" xmlns="http://www.w3.org/2000/svg">
<path d="M12.4568 3.35624H17.4395C17.8981 3.35624 18.27 3.72805 18.27 4.1867C18.27 4.64534 17.8981 5.01715 17.4395 5.01715H16.5219L15.2714 16.2716C15.0377 18.3745 13.2604 19.9653 11.1446 19.9653H7.12543C5.00965 19.9653 3.23221 18.3745 2.99856 16.2716L1.74806 5.01715H0.830455C0.371811 5.01715 0 4.64534 0 4.1867C0 3.72805 0.371811 3.35624 0.830455 3.35624H5.81318C5.81318 1.52165 7.30041 0.0344238 9.135 0.0344238C10.9696 0.0344238 12.4568 1.52165 12.4568 3.35624ZM9.135 1.69533C8.21771 1.69533 7.47409 2.43896 7.47409 3.35624H10.7959C10.7959 2.43896 10.0523 1.69533 9.135 1.69533ZM6.64364 8.33897V14.9826C6.64364 15.4412 7.01545 15.8131 7.47409 15.8131C7.93273 15.8131 8.30455 15.4412 8.30455 14.9826V8.33897C8.30455 7.88033 7.93273 7.50852 7.47409 7.50852C7.01545 7.50852 6.64364 7.88033 6.64364 8.33897ZM10.7959 7.50852C10.3373 7.50852 9.96546 7.88033 9.96546 8.33897V14.9826C9.96546 15.4412 10.3373 15.8131 10.7959 15.8131C11.2546 15.8131 11.6264 15.4412 11.6264 14.9826V8.33897C11.6264 7.88033 11.2546 7.50852 10.7959 7.50852Z" fill="#212121" fill-opacity="0.5"/>
</svg>
