<svg width="26" height="26" viewBox="0 0 26 26" fill="none" xmlns="http://www.w3.org/2000/svg">
<path d="M13 25.5C11.2917 25.5 9.67708 25.1719 8.15625 24.5156C6.63542 23.8594 5.30729 22.9635 4.17188 21.8281C3.03646 20.6927 2.14063 19.3646 1.48438 17.8438C0.828125 16.3229 0.5 14.7083 0.5 13C0.5 11.2708 0.828125 9.65104 1.48438 8.14062C2.14063 6.63021 3.03646 5.30729 4.17188 4.17188C5.30729 3.03646 6.63542 2.14063 8.15625 1.48438C9.67708 0.828125 11.2917 0.5 13 0.5C14.7292 0.5 16.349 0.828125 17.8594 1.48438C19.3698 2.14063 20.6927 3.03646 21.8281 4.17188C22.9635 5.30729 23.8594 6.63021 24.5156 8.14062C25.1719 9.65104 25.5 11.2708 25.5 13C25.5 14.7083 25.1719 16.3229 24.5156 17.8438C23.8594 19.3646 22.9635 20.6927 21.8281 21.8281C20.6927 22.9635 19.3698 23.8594 17.8594 24.5156C16.349 25.1719 14.7292 25.5 13 25.5ZM13 22.9375C13.5417 22.1875 14.0104 21.4063 14.4062 20.5938C14.8021 19.7812 15.125 18.9167 15.375 18H10.625C10.875 18.9167 11.1979 19.7812 11.5938 20.5938C11.9896 21.4063 12.4583 22.1875 13 22.9375ZM9.75 22.4375C9.375 21.75 9.04688 21.0365 8.76562 20.2969C8.48438 19.5573 8.25 18.7917 8.0625 18H4.375C4.97917 19.0417 5.73438 19.9479 6.64062 20.7188C7.54688 21.4896 8.58333 22.0625 9.75 22.4375ZM16.25 22.4375C17.4167 22.0625 18.4531 21.4896 19.3594 20.7188C20.2656 19.9479 21.0208 19.0417 21.625 18H17.9375C17.75 18.7917 17.5156 19.5573 17.2344 20.2969C16.9531 21.0365 16.625 21.75 16.25 22.4375ZM3.3125 15.5H7.5625C7.5 15.0833 7.45312 14.6719 7.42188 14.2656C7.39062 13.8594 7.375 13.4375 7.375 13C7.375 12.5625 7.39062 12.1406 7.42188 11.7344C7.45312 11.3281 7.5 10.9167 7.5625 10.5H3.3125C3.20833 10.9167 3.13021 11.3281 3.07812 11.7344C3.02604 12.1406 3 12.5625 3 13C3 13.4375 3.02604 13.8594 3.07812 14.2656C3.13021 14.6719 3.20833 15.0833 3.3125 15.5ZM10.0625 15.5H15.9375C16 15.0833 16.0469 14.6719 16.0781 14.2656C16.1094 13.8594 16.125 13.4375 16.125 13C16.125 12.5625 16.1094 12.1406 16.0781 11.7344C16.0469 11.3281 16 10.9167 15.9375 10.5H10.0625C10 10.9167 9.95312 11.3281 9.92188 11.7344C9.89062 12.1406 9.875 12.5625 9.875 13C9.875 13.4375 9.89062 13.8594 9.92188 14.2656C9.95312 14.6719 10 15.0833 10.0625 15.5ZM18.4375 15.5H22.6875C22.7917 15.0833 22.8698 14.6719 22.9219 14.2656C22.974 13.8594 23 13.4375 23 13C23 12.5625 22.974 12.1406 22.9219 11.7344C22.8698 11.3281 22.7917 10.9167 22.6875 10.5H18.4375C18.5 10.9167 18.5469 11.3281 18.5781 11.7344C18.6094 12.1406 18.625 12.5625 18.625 13C18.625 13.4375 18.6094 13.8594 18.5781 14.2656C18.5469 14.6719 18.5 15.0833 18.4375 15.5ZM17.9375 8H21.625C21.0208 6.95833 20.2656 6.05208 19.3594 5.28125C18.4531 4.51042 17.4167 3.9375 16.25 3.5625C16.625 4.25 16.9531 4.96354 17.2344 5.70312C17.5156 6.44271 17.75 7.20833 17.9375 8ZM10.625 8H15.375C15.125 7.08333 14.8021 6.21875 14.4062 5.40625C14.0104 4.59375 13.5417 3.8125 13 3.0625C12.4583 3.8125 11.9896 4.59375 11.5938 5.40625C11.1979 6.21875 10.875 7.08333 10.625 8ZM4.375 8H8.0625C8.25 7.20833 8.48438 6.44271 8.76562 5.70312C9.04688 4.96354 9.375 4.25 9.75 3.5625C8.58333 3.9375 7.54688 4.51042 6.64062 5.28125C5.73438 6.05208 4.97917 6.95833 4.375 8Z" fill="#414141"/>
</svg>
