<svg width="24" height="24" viewBox="0 0 24 24" fill="none" xmlns="http://www.w3.org/2000/svg">
<path d="M2.01562 6H3.98438V20.0156H18V21.9844H3.98438C3.45312 21.9844 2.98438 21.7969 2.57812 21.4219C2.20312 21.0156 2.01562 20.5469 2.01562 20.0156V6ZM11.0156 12L8.01562 15.9844H20.0156L15.9844 11.0156L13.0312 14.7188L11.0156 12ZM21.9844 15.9844C21.9844 16.5156 21.7812 16.9844 21.375 17.3906C21 17.7969 20.5469 18 20.0156 18H8.01562C7.48438 18 7.01562 17.7969 6.60938 17.3906C6.20312 16.9844 6 16.5156 6 15.9844V3.98438C6 3.45313 6.20312 3 6.60938 2.625C7.01562 2.21875 7.48438 2.01562 8.01562 2.01562H20.0156C20.5469 2.01562 21 2.21875 21.375 2.625C21.7812 3 21.9844 3.45313 21.9844 3.98438V15.9844Z" fill="#333333"/>
</svg>
